ply
format ascii 1.0
comment SOLIDWORKS generated,length unit = millimeters
element vertex 16
property float x
property float y
property float z
element face 20
property uchar red
property uchar green
property uchar blue
property uchar alpha
property list uchar int vertex_indices
end_header
-0.04 -0.04 0 
0.04 -0.04 0 
-0.04 -0.04 0.1 
0.04 -0.04 0.1 
-0.039 -0.039 0.001 
0.039 -0.039 0.001 
-0.039 -0.039 0.1 
0.039 -0.039 0.1 
-0.039 0.039 0.001 
0.039 0.039 0.001 
-0.039 0.039 0.1 
0.039 0.039 0.1 
-0.04 0.04 0 
0.04 0.04 0 
-0.04 0.04 0.1 
0.04 0.04 0.1 
202 209 238 0 3 2 14 0
202 209 238 0 3 14 12 0
202 209 238 0 3 1 2 0
202 209 238 0 3 12 1 0
202 209 238 0 3 9 7 1
202 209 238 0 3 7 2 1
202 209 238 0 3 12 9 1
202 209 238 0 3 9 11 7
202 209 238 0 3 12 2 0
202 209 238 0 3 2 7 0
202 209 238 0 3 7 1 0
202 209 238 0 3 9 12 0
202 209 238 0 3 1 9 0
202 209 238 0 3 7 11 1
202 209 238 0 3 11 9 1
202 209 238 0 3 12 14 2
202 209 238 0 3 9 14 12
202 209 238 0 3 11 14 9
202 209 238 0 3 14 11 12
202 209 238 0 3 11 9 12
