ply
format ascii 1.0
comment SOLIDWORKS generated,length unit = millimeters
element vertex 71
property float x
property float y
property float z
element face 92
property uchar red
property uchar green
property uchar blue
property uchar alpha
property list uchar int vertex_indices
end_header
-0.000682424 -0.00997669 -0.08 
-0.000682424 -0.00997669 -2.71051e-17 
-0.000682424 -0.00997669 0 
0.00203456 -0.00979084 -0.08 
0.00203456 -0.00979084 -2.71051e-17 
0.00203456 -0.00979084 0 
-0.0033488 -0.00942261 -0.08 
-0.0033488 -0.00942261 -2.71051e-17 
-0.0033488 -0.00942261 0 
0.00460065 -0.00887885 -0.08 
0.00460065 -0.00887885 -2.71051e-17 
0.00460065 -0.00887885 0 
-0.0057668 -0.0081697 -0.08 
-0.0057668 -0.0081697 -2.71051e-17 
-0.0057668 -0.0081697 0 
0.00682553 -0.00730836 -0.08 
0.00682553 -0.00730836 -2.71051e-17 
0.00682553 -0.00730836 0 
-0.00775711 -0.00631088 -0.08 
-0.00775711 -0.00631088 -2.71051e-17 
-0.00775711 -0.00631088 0 
0.00854419 -0.00519584 -0.08 
0.00854419 -0.00519584 -2.71051e-17 
0.00854419 -0.00519584 0 
-0.00917211 -0.00398401 -0.08 
-0.00917211 -0.00398401 -2.71051e-17 
-0.00917211 -0.00398401 0 
0.00962917 -0.00269797 -0.08 
0.00962917 -0.00269797 -2.71051e-17 
0.00962917 -0.00269797 0 
-0.00990686 -0.00136167 -0.08 
-0.00990686 -0.00136167 -2.71051e-17 
-0.00990686 -0.00136167 0 
0.01 -2.44929e-18 0 
0 0 -0.08 
0.01 0 -0.08 
0.01 0 -2.71051e-17 
0 0 0 
-0.00990686 0.00136167 -0.08 
-0.00990686 0.00136167 -2.71051e-17 
-0.00990686 0.00136167 0 
0.00962917 0.00269797 -0.08 
0.00962917 0.00269797 -2.71051e-17 
0.00962917 0.00269797 0 
-0.00917211 0.00398401 -0.08 
-0.00917211 0.00398401 -2.71051e-17 
-0.00917211 0.00398401 0 
0.00854419 0.00519584 -0.08 
0.00854419 0.00519584 -2.71051e-17 
0.00854419 0.00519584 0 
-0.00775711 0.00631088 -0.08 
-0.00775711 0.00631088 -2.71051e-17 
-0.00775711 0.00631088 0 
0.00682553 0.00730836 -0.08 
0.00682553 0.00730836 -2.71051e-17 
0.00682553 0.00730836 0 
-0.0057668 0.0081697 -0.08 
-0.0057668 0.0081697 -2.71051e-17 
-0.0057668 0.0081697 0 
0.00460065 0.00887885 -0.08 
0.00460065 0.00887885 -2.71051e-17 
0.00460065 0.00887885 0 
-0.0033488 0.00942261 -0.08 
-0.0033488 0.00942261 -2.71051e-17 
-0.0033488 0.00942261 0 
0.00203456 0.00979084 -0.08 
0.00203456 0.00979084 -2.71051e-17 
0.00203456 0.00979084 0 
-0.000682424 0.00997669 -0.08 
-0.000682424 0.00997669 -2.71051e-17 
-0.000682424 0.00997669 0 
255 128 128 0 3 7 6 0
255 128 128 0 3 1 7 0
255 128 128 0 3 3 1 0
255 128 128 0 3 34 3 0
255 128 128 0 3 6 34 0
255 128 128 0 3 3 4 1
255 128 128 0 3 37 7 1
255 128 128 0 3 4 37 1
255 128 128 0 3 9 4 3
255 128 128 0 3 34 9 3
255 128 128 0 3 9 11 4
255 128 128 0 3 11 37 4
255 128 128 0 3 13 12 6
255 128 128 0 3 7 13 6
255 128 128 0 3 12 34 6
255 128 128 0 3 37 13 7
255 128 128 0 3 15 11 9
255 128 128 0 3 34 15 9
255 128 128 0 3 15 17 11
255 128 128 0 3 17 37 11
255 128 128 0 3 19 18 12
255 128 128 0 3 13 19 12
255 128 128 0 3 18 34 12
255 128 128 0 3 37 19 13
255 128 128 0 3 21 17 15
255 128 128 0 3 34 21 15
255 128 128 0 3 21 23 17
255 128 128 0 3 23 37 17
255 128 128 0 3 25 24 18
255 128 128 0 3 19 25 18
255 128 128 0 3 24 34 18
255 128 128 0 3 37 25 19
255 128 128 0 3 27 23 21
255 128 128 0 3 34 27 21
255 128 128 0 3 27 29 23
255 128 128 0 3 29 37 23
255 128 128 0 3 32 30 24
255 128 128 0 3 25 32 24
255 128 128 0 3 30 34 24
255 128 128 0 3 37 32 25
255 128 128 0 3 35 29 27
255 128 128 0 3 34 35 27
255 128 128 0 3 35 36 29
255 128 128 0 3 36 37 29
255 128 128 0 3 39 38 30
255 128 128 0 3 32 39 30
255 128 128 0 3 38 34 30
255 128 128 0 3 37 39 32
255 128 128 0 3 42 37 36
255 128 128 0 3 41 35 34
255 128 128 0 3 59 53 34
255 128 128 0 3 53 47 34
255 128 128 0 3 47 41 34
255 128 128 0 3 62 68 34
255 128 128 0 3 68 65 34
255 128 128 0 3 65 59 34
255 128 128 0 3 44 50 34
255 128 128 0 3 50 56 34
255 128 128 0 3 56 62 34
255 128 128 0 3 38 44 34
255 128 128 0 3 41 36 35
255 128 128 0 3 41 42 36
255 128 128 0 3 46 39 37
255 128 128 0 3 63 57 37
255 128 128 0 3 57 52 37
255 128 128 0 3 52 46 37
255 128 128 0 3 60 66 37
255 128 128 0 3 66 70 37
255 128 128 0 3 70 63 37
255 128 128 0 3 42 48 37
255 128 128 0 3 48 55 37
255 128 128 0 3 55 60 37
255 128 128 0 3 46 44 38
255 128 128 0 3 39 46 38
255 128 128 0 3 47 42 41
255 128 128 0 3 47 48 42
255 128 128 0 3 52 50 44
255 128 128 0 3 46 52 44
255 128 128 0 3 53 48 47
255 128 128 0 3 53 55 48
255 128 128 0 3 57 56 50
255 128 128 0 3 52 57 50
255 128 128 0 3 59 55 53
255 128 128 0 3 59 60 55
255 128 128 0 3 63 62 56
255 128 128 0 3 57 63 56
255 128 128 0 3 65 60 59
255 128 128 0 3 65 66 60
255 128 128 0 3 70 68 62
255 128 128 0 3 63 70 62
255 128 128 0 3 68 66 65
255 128 128 0 3 68 70 66
