ply
format ascii 1.0
comment SOLIDWORKS generated,length unit = millimeters
element vertex 108
property float x
property float y
property float z
element face 212
property uchar red
property uchar green
property uchar blue
property uchar alpha
property list uchar int vertex_indices
end_header
-0.05 -0.05 -0.02 
0.05 -0.05 -0.02 
-0.05 -0.05 0 
0.05 -0.05 0 
-0.0353553 -0.0403553 -0.12 
0.0353553 -0.0403553 -0.12 
-0.0353553 -0.0403553 -0.02 
0.0353553 -0.0403553 -0.02 
-0.0378553 -0.0396855 -0.12 
-0.0328553 -0.0396855 -0.12 
0.0328553 -0.0396855 -0.12 
0.0378553 -0.0396855 -0.12 
-0.0378553 -0.0396855 -0.02 
-0.0328553 -0.0396855 -0.02 
0.0328553 -0.0396855 -0.02 
0.0378553 -0.0396855 -0.02 
-0.0396855 -0.0378553 -0.12 
-0.0310252 -0.0378553 -0.12 
0.0310252 -0.0378553 -0.12 
0.0396855 -0.0378553 -0.12 
-0.0396855 -0.0378553 -0.02 
-0.0310252 -0.0378553 -0.02 
0.0310252 -0.0378553 -0.02 
0.0396855 -0.0378553 -0.02 
-0.0403553 -0.0353553 -0.12 
-0.0353553 -0.0353553 -0.12 
-0.0303553 -0.0353553 -0.12 
0.0303553 -0.0353553 -0.12 
0.0353553 -0.0353553 -0.12 
0.0403553 -0.0353553 -0.12 
-0.0403553 -0.0353553 -0.02 
-0.0303553 -0.0353553 -0.02 
0.0303553 -0.0353553 -0.02 
0.0403553 -0.0353553 -0.02 
-0.0396855 -0.0328553 -0.12 
-0.0310252 -0.0328553 -0.12 
0.0310252 -0.0328553 -0.12 
0.0396855 -0.0328553 -0.12 
-0.0396855 -0.0328553 -0.02 
-0.0310252 -0.0328553 -0.02 
0.0310252 -0.0328553 -0.02 
0.0396855 -0.0328553 -0.02 
-0.0378553 -0.0310252 -0.12 
-0.0328553 -0.0310252 -0.12 
0.0328553 -0.0310252 -0.12 
0.0378553 -0.0310252 -0.12 
-0.0378553 -0.0310252 -0.02 
-0.0328553 -0.0310252 -0.02 
0.0328553 -0.0310252 -0.02 
0.0378553 -0.0310252 -0.02 
-0.0353553 -0.0303553 -0.12 
0.0353553 -0.0303553 -0.12 
-0.0353553 -0.0303553 -0.02 
0.0353553 -0.0303553 -0.02 
-0.0353553 0.0303553 -0.12 
0.0353553 0.0303553 -0.12 
-0.0353553 0.0303553 -0.02 
0.0353553 0.0303553 -0.02 
-0.0378553 0.0310252 -0.12 
-0.0328553 0.0310252 -0.12 
0.0328553 0.0310252 -0.12 
0.0378553 0.0310252 -0.12 
-0.0378553 0.0310252 -0.02 
-0.0328553 0.0310252 -0.02 
0.0328553 0.0310252 -0.02 
0.0378553 0.0310252 -0.02 
-0.0396855 0.0328553 -0.12 
-0.0310252 0.0328553 -0.12 
0.0310252 0.0328553 -0.12 
0.0396855 0.0328553 -0.12 
-0.0396855 0.0328553 -0.02 
-0.0310252 0.0328553 -0.02 
0.0310252 0.0328553 -0.02 
0.0396855 0.0328553 -0.02 
-0.0403553 0.0353553 -0.12 
-0.0353553 0.0353553 -0.12 
-0.0303553 0.0353553 -0.12 
0.0303553 0.0353553 -0.12 
0.0353553 0.0353553 -0.12 
0.0403553 0.0353553 -0.12 
-0.0403553 0.0353553 -0.02 
-0.0303553 0.0353553 -0.02 
0.0303553 0.0353553 -0.02 
0.0403553 0.0353553 -0.02 
-0.0396855 0.0378553 -0.12 
-0.0310252 0.0378553 -0.12 
0.0310252 0.0378553 -0.12 
0.0396855 0.0378553 -0.12 
-0.0396855 0.0378553 -0.02 
-0.0310252 0.0378553 -0.02 
0.0310252 0.0378553 -0.02 
0.0396855 0.0378553 -0.02 
-0.0378553 0.0396855 -0.12 
-0.0328553 0.0396855 -0.12 
0.0328553 0.0396855 -0.12 
0.0378553 0.0396855 -0.12 
-0.0378553 0.0396855 -0.02 
-0.0328553 0.0396855 -0.02 
0.0328553 0.0396855 -0.02 
0.0378553 0.0396855 -0.02 
-0.0353553 0.0403553 -0.12 
0.0353553 0.0403553 -0.12 
-0.0353553 0.0403553 -0.02 
0.0353553 0.0403553 -0.02 
-0.05 0.05 -0.02 
0.05 0.05 -0.02 
-0.05 0.05 0 
0.05 0.05 0 
186 91 6 0 3 1 2 0
186 91 6 0 3 106 104 0
186 91 6 0 3 2 106 0
186 91 6 0 3 20 12 0
186 91 6 0 3 12 6 0
186 91 6 0 3 6 22 0
186 91 6 0 3 22 14 0
186 91 6 0 3 14 1 0
186 91 6 0 3 104 38 0
186 91 6 0 3 38 30 0
186 91 6 0 3 30 20 0
186 91 6 0 3 105 3 1
186 91 6 0 3 3 2 1
186 91 6 0 3 15 23 1
186 91 6 0 3 23 33 1
186 91 6 0 3 33 105 1
186 91 6 0 3 14 7 1
186 91 6 0 3 7 15 1
186 91 6 0 3 107 106 2
186 91 6 0 3 3 107 2
186 91 6 0 3 105 107 3
186 91 6 0 3 12 8 4
186 91 6 0 3 6 12 4
186 91 6 0 3 9 6 4
186 91 6 0 3 25 9 4
186 91 6 0 3 8 25 4
186 91 6 0 3 14 10 5
186 91 6 0 3 7 14 5
186 91 6 0 3 11 7 5
186 91 6 0 3 28 11 5
186 91 6 0 3 10 28 5
186 91 6 0 3 13 32 6
186 91 6 0 3 32 22 6
186 91 6 0 3 9 13 6
186 91 6 0 3 11 15 7
186 91 6 0 3 20 16 8
186 91 6 0 3 12 20 8
186 91 6 0 3 16 25 8
186 91 6 0 3 17 13 9
186 91 6 0 3 25 17 9
186 91 6 0 3 22 18 10
186 91 6 0 3 14 22 10
186 91 6 0 3 18 28 10
186 91 6 0 3 19 15 11
186 91 6 0 3 28 19 11
186 91 6 0 3 21 32 13
186 91 6 0 3 17 21 13
186 91 6 0 3 19 23 15
186 91 6 0 3 20 30 16
186 91 6 0 3 30 24 16
186 91 6 0 3 24 25 16
186 91 6 0 3 26 21 17
186 91 6 0 3 25 26 17
186 91 6 0 3 32 27 18
186 91 6 0 3 22 32 18
186 91 6 0 3 27 28 18
186 91 6 0 3 29 23 19
186 91 6 0 3 28 29 19
186 91 6 0 3 31 32 21
186 91 6 0 3 26 31 21
186 91 6 0 3 29 33 23
186 91 6 0 3 38 34 24
186 91 6 0 3 30 38 24
186 91 6 0 3 34 25 24
186 91 6 0 3 43 35 25
186 91 6 0 3 35 26 25
186 91 6 0 3 34 42 25
186 91 6 0 3 42 50 25
186 91 6 0 3 50 43 25
186 91 6 0 3 35 31 26
186 91 6 0 3 40 36 27
186 91 6 0 3 32 40 27
186 91 6 0 3 36 28 27
186 91 6 0 3 45 37 28
186 91 6 0 3 37 29 28
186 91 6 0 3 36 44 28
186 91 6 0 3 44 51 28
186 91 6 0 3 51 45 28
186 91 6 0 3 37 33 29
186 91 6 0 3 40 32 31
186 91 6 0 3 39 40 31
186 91 6 0 3 35 39 31
186 91 6 0 3 41 105 33
186 91 6 0 3 37 41 33
186 91 6 0 3 46 42 34
186 91 6 0 3 38 46 34
186 91 6 0 3 43 39 35
186 91 6 0 3 48 44 36
186 91 6 0 3 40 48 36
186 91 6 0 3 45 41 37
186 91 6 0 3 104 46 38
186 91 6 0 3 62 40 39
186 91 6 0 3 47 62 39
186 91 6 0 3 43 47 39
186 91 6 0 3 62 48 40
186 91 6 0 3 49 105 41
186 91 6 0 3 45 49 41
186 91 6 0 3 52 50 42
186 91 6 0 3 46 52 42
186 91 6 0 3 50 47 43
186 91 6 0 3 53 51 44
186 91 6 0 3 48 53 44
186 91 6 0 3 51 49 45
186 91 6 0 3 70 52 46
186 91 6 0 3 104 70 46
186 91 6 0 3 52 62 47
186 91 6 0 3 50 52 47
186 91 6 0 3 62 56 48
186 91 6 0 3 56 72 48
186 91 6 0 3 72 64 48
186 91 6 0 3 64 53 48
186 91 6 0 3 73 105 49
186 91 6 0 3 53 57 49
186 91 6 0 3 57 65 49
186 91 6 0 3 65 73 49
186 91 6 0 3 51 53 49
186 91 6 0 3 70 62 52
186 91 6 0 3 64 57 53
186 91 6 0 3 62 58 54
186 91 6 0 3 56 62 54
186 91 6 0 3 59 56 54
186 91 6 0 3 75 59 54
186 91 6 0 3 58 75 54
186 91 6 0 3 64 60 55
186 91 6 0 3 57 64 55
186 91 6 0 3 61 57 55
186 91 6 0 3 78 61 55
186 91 6 0 3 60 78 55
186 91 6 0 3 63 82 56
186 91 6 0 3 82 72 56
186 91 6 0 3 59 63 56
186 91 6 0 3 61 65 57
186 91 6 0 3 70 66 58
186 91 6 0 3 62 70 58
186 91 6 0 3 66 75 58
186 91 6 0 3 67 63 59
186 91 6 0 3 75 67 59
186 91 6 0 3 72 68 60
186 91 6 0 3 64 72 60
186 91 6 0 3 68 78 60
186 91 6 0 3 69 65 61
186 91 6 0 3 78 69 61
186 91 6 0 3 71 82 63
186 91 6 0 3 67 71 63
186 91 6 0 3 69 73 65
186 91 6 0 3 70 80 66
186 91 6 0 3 80 74 66
186 91 6 0 3 74 75 66
186 91 6 0 3 76 71 67
186 91 6 0 3 75 76 67
186 91 6 0 3 82 77 68
186 91 6 0 3 72 82 68
186 91 6 0 3 77 78 68
186 91 6 0 3 79 73 69
186 91 6 0 3 78 79 69
186 91 6 0 3 104 80 70
186 91 6 0 3 81 82 71
186 91 6 0 3 76 81 71
186 91 6 0 3 83 105 73
186 91 6 0 3 79 83 73
186 91 6 0 3 88 84 74
186 91 6 0 3 80 88 74
186 91 6 0 3 84 75 74
186 91 6 0 3 93 85 75
186 91 6 0 3 85 76 75
186 91 6 0 3 84 92 75
186 91 6 0 3 92 100 75
186 91 6 0 3 100 93 75
186 91 6 0 3 85 81 76
186 91 6 0 3 90 86 77
186 91 6 0 3 82 90 77
186 91 6 0 3 86 78 77
186 91 6 0 3 95 87 78
186 91 6 0 3 87 79 78
186 91 6 0 3 86 94 78
186 91 6 0 3 94 101 78
186 91 6 0 3 101 95 78
186 91 6 0 3 87 83 79
186 91 6 0 3 104 88 80
186 91 6 0 3 90 82 81
186 91 6 0 3 89 90 81
186 91 6 0 3 85 89 81
186 91 6 0 3 91 105 83
186 91 6 0 3 87 91 83
186 91 6 0 3 96 92 84
186 91 6 0 3 88 96 84
186 91 6 0 3 93 89 85
186 91 6 0 3 98 94 86
186 91 6 0 3 90 98 86
186 91 6 0 3 95 91 87
186 91 6 0 3 104 96 88
186 91 6 0 3 97 90 89
186 91 6 0 3 93 97 89
186 91 6 0 3 104 98 90
186 91 6 0 3 97 104 90
186 91 6 0 3 99 105 91
186 91 6 0 3 95 99 91
186 91 6 0 3 102 100 92
186 91 6 0 3 96 102 92
186 91 6 0 3 100 97 93
186 91 6 0 3 103 101 94
186 91 6 0 3 98 103 94
186 91 6 0 3 101 99 95
186 91 6 0 3 104 102 96
186 91 6 0 3 102 104 97
186 91 6 0 3 100 102 97
186 91 6 0 3 104 103 98
186 91 6 0 3 103 105 99
186 91 6 0 3 101 103 99
186 91 6 0 3 104 105 103
186 91 6 0 3 107 105 104
186 91 6 0 3 106 107 104
